<?xml version="1.0"?>
<svg width="40" height="40" xmlns="http://www.w3.org/2000/svg" xmlns:svg="http://www.w3.org/2000/svg">
 <g class="layer">
  <title>Layer 1</title>
  <path clip-rule="evenodd" d="m10.67,12.92c-1.15,0 -2.09,0.93 -2.09,2.08c0,1.15 0.94,2.08 2.09,2.08c1.15,0 2.08,-0.93 2.08,-2.08c0,-1.15 -0.93,-2.08 -2.08,-2.08zm-4.59,2.08c0,-2.53 2.06,-4.58 4.59,-4.58c2.53,0 4.58,2.05 4.58,4.58c0,2.53 -2.05,4.58 -4.58,4.58c-2.53,0 -4.59,-2.05 -4.59,-4.58z" fill="#8f5774" fill-rule="evenodd" id="svg_1"/>
  <path clip-rule="evenodd" d="m16.91,26.01c-2.08,2.33 -4.26,5.52 -6.55,9.6c-0.34,0.6 -1.1,0.82 -1.71,0.48c-0.6,-0.34 -0.81,-1.1 -0.47,-1.7c2.34,-4.17 4.62,-7.53 6.86,-10.05c2.25,-2.51 4.52,-4.25 6.89,-5.07c2.41,-0.83 4.82,-0.68 7.2,0.43c2.33,1.09 4.59,3.07 6.84,5.83c0.44,0.53 0.36,1.32 -0.18,1.76c-0.53,0.43 -1.32,0.35 -1.76,-0.18c-2.12,-2.61 -4.1,-4.28 -5.96,-5.15c-1.81,-0.84 -3.55,-0.94 -5.32,-0.33c-1.81,0.63 -3.75,2.04 -5.84,4.38z" fill="#8f5774" fill-rule="evenodd" id="svg_2"/>
  <path clip-rule="evenodd" d="m2.74,6.07c1.48,-1.49 3.49,-2.32 5.59,-2.32l12.14,0c0.69,0 1.25,0.56 1.25,1.25c0,0.69 -0.56,1.25 -1.25,1.25l-12.14,0c-1.43,0 -2.81,0.57 -3.83,1.59c-1.01,1.01 -1.58,2.39 -1.58,3.83l0,16.66c0,1.44 0.57,2.82 1.58,3.83c1.02,1.02 2.4,1.59 3.83,1.59l20,0c1.44,0 2.82,-0.57 3.83,-1.59c1.02,-1.01 1.59,-2.39 1.59,-3.83l0,-8.33c0,-0.69 0.56,-1.25 1.25,-1.25c0.69,0 1.25,0.56 1.25,1.25l0,8.33c0,2.1 -0.83,4.12 -2.32,5.6c-1.48,1.49 -3.5,2.32 -5.6,2.32l-20,0c-2.1,0 -4.11,-0.83 -5.59,-2.32c-1.49,-1.48 -2.32,-3.5 -2.32,-5.6l0,-16.66c0,-2.1 0.83,-4.12 2.32,-5.6z" fill="#8f5774" fill-rule="evenodd" id="svg_3"/>
  <path clip-rule="evenodd" d="m31.25,0.13c0.69,0 1.25,0.56 1.25,1.25l0,13.34c0,0.69 -0.56,1.25 -1.25,1.25c-0.69,0 -1.25,-0.56 -1.25,-1.25l0,-13.34c0,-0.69 0.56,-1.25 1.25,-1.25z" fill="#8f5774" fill-rule="evenodd" id="svg_4"/>
  <path clip-rule="evenodd" d="m30.37,0.5c0.49,-0.49 1.28,-0.49 1.77,0l5.33,5.33c0.49,0.49 0.49,1.28 0,1.77c-0.49,0.49 -1.28,0.49 -1.77,0l-4.45,-4.45l-4.45,4.45c-0.49,0.49 -1.28,0.49 -1.77,0c-0.48,-0.49 -0.48,-1.28 0,-1.77l5.34,-5.33z" fill="#8f5774" fill-rule="evenodd" id="svg_5"/>
 </g>
</svg>