<?xml version="1.0"?>
<svg width="200" height="90" xmlns="http://www.w3.org/2000/svg" xmlns:svg="http://www.w3.org/2000/svg" enable-background="new 0 0 313 235" version="1.1" xml:space="preserve">
 <g class="layer">
  <title>Layer 1</title>
  <g id="svg_35">
   <path d="m131.58,94c-30.68,0 -61.13,0 -91.58,0c0,-32.01 0,-63.99 0,-96c42.67,0 85.33,0 128,0c0,32.01 0,63.99 0,96c-12.1,0 -24.12,0 -36.42,0m-25.71,-41.43c-0.74,0.81 -1.63,1.53 -2.2,2.44c-0.18,0.28 0.18,1.29 0.58,1.48c0.35,0.18 1.06,-0.18 1.55,-0.46c0.23,-0.15 0.35,-0.55 0.74,-0.66c0.18,1.2 0.46,2.42 0.46,3.6c0.04,7.87 0.01,15.77 0.01,23.98c2.28,0 4.54,-0.08 6.84,0.02c1.67,0.08 2.29,-0.46 2.21,-2.2c-0.2,-6.31 -0.31,-12.63 -0.39,-18.92c-0.01,-1.29 0.35,-2.54 0.35,-3.82c0.04,-3.72 0.01,-7.44 0.01,-10.59c1.93,0.94 4.12,1.98 6.31,3.04c0.28,0.15 0.46,0.46 0.52,0.9c-1.33,2.08 -3.1,4.02 -3.95,6.29c-1.5,4 -1.86,8.23 -0.36,12.4c0.65,1.89 2.06,3 4.11,3.21c2.06,0.18 3.75,-0.44 4.81,-2.35c0.2,-0.37 0.5,-0.68 0.93,-1.33c0.92,4.21 0.92,8.94 6.4,9.16c4.68,0.18 5.62,-4 7.4,-7.66c0.31,0.98 0.5,1.59 0.66,2.2c1.05,3.34 2.25,6.6 5.3,8.72c2.61,1.84 4.94,1.58 6.75,-1.02c4.12,-5.92 5.11,-12.98 6.58,-19.79c0.09,-0.41 -0.62,-1.3 -1.08,-1.42c-0.44,-0.1 -1.28,0.39 -1.55,0.86c-0.39,0.68 -0.39,1.58 -0.62,2.35c-1.32,4.56 -2.6,9.16 -4.07,13.63c-0.46,1.39 -1.55,2.55 -2.65,4.3c-0.74,-1.42 -1.41,-2.22 -1.55,-3.06c-0.65,-4.21 -1.29,-8.45 -1.71,-12.66c-0.11,-1.24 0.58,-2.55 1.1,-3.99c1.27,-2.42 2.52,-4.83 3.88,-7.56c0.31,-0.86 0.65,-1.73 0.89,-2.58c0.92,-3.51 0.76,-6.91 -1.51,-9.9c-2.25,-2.88 -5.66,-2.54 -7.46,0.59c-3.14,5.43 -3.98,11.4 -3.8,17.47c0.18,4.95 -1.51,9.32 -3.56,13.62c-0.39,0.84 -1.17,1.48 -1.78,2.2c-0.23,-0.08 -0.5,-0.18 -0.7,-0.28c0,-0.84 -0.11,-1.73 0.01,-2.51c0.89,-5.14 1.78,-10.28 2.76,-15.42c1.15,-5.92 0.46,-7.13 -5.34,-8.97c0.09,-0.18 0.13,-0.41 0.27,-0.53c5.08,-5.37 6.35,-12.98 2.99,-19.53c-3.14,-6.1 -8.32,-8.45 -15.16,-6.6c-1.63,0.43 -2.99,1.64 -4.68,2.38c-0.18,-0.15 -0.39,-0.28 -0.59,-0.66c-0.01,-0.16 -0.01,-0.33 0.13,-0.62c-0.04,-0.24 -0.11,-0.46 -0.14,-0.93c0,0 -0.01,-0.18 -0.09,-0.52c-0.22,-0.15 -0.43,-0.41 -0.64,-0.41c-5.55,-0.03 -11.08,-0.03 -16.63,-0.02c-0.35,0 -0.65,0.57 -0.93,1.14c-0.01,0.28 -0.01,0.53 -0.28,1.02c0.09,1.14 0.14,2.33 0.28,3.86c0,8.01 0,15.98 0,24.12c3.02,0 5.75,0 8.76,0.02c0.2,-0.02 0.39,-0.03 0.59,0.26c0,0.33 0,0.63 -0.18,1.02c-0.13,0.15 -0.27,0.28 -0.65,0.55m-38.53,7.7c-0.01,-0.41 0.11,-0.88 -0.05,-1.15c-0.36,-0.62 -0.89,-1.12 -1.32,-1.73c-0.44,0.55 -1.23,1.08 -1.29,1.73c-0.18,1.26 0.28,2.38 1.5,2.82c-1.78,2 -4.06,2.73 -6.63,3.12c-5.11,0.8 -10.19,1.82 -15.27,2.73c-1.06,0.18 -2.13,0.41 -2.2,1.9c4.6,0.66 9.27,-0.52 13.86,0.93c-1.98,2.91 -2.57,3.12 -5.55,2.36c-0.84,-0.19 -1.8,-0.03 -3.02,-0.03c0.62,1.08 0.92,1.74 1.37,2.54c-1.67,0.37 -3.15,0.7 -4.62,1.02c0.01,0.18 0.04,0.41 0.05,0.59c3.19,0.9 6.39,1.8 9.97,2.8c-0.84,-2.29 0.31,-2.98 1.64,-3.74c1.63,-0.9 3.1,-1.98 4.68,-2.9c0.62,-0.34 1.33,-0.52 2.04,-0.57c2.45,-0.24 2.74,2 3.84,3.38c0.36,0.44 1,0.68 1.5,0.99c0.28,-0.57 0.82,-1.14 0.78,-1.73c-0.09,-1.95 -0.13,-3.99 -0.64,-5.86c-0.52,-1.86 0.23,-2.85 1.46,-4.02c1.9,-1.86 3.57,-3.87 5.25,-5.92c0.35,-0.41 0.39,-1.42 0.09,-1.84c-0.27,-0.37 -1.17,-0.34 -1.8,-0.37c-2.56,-0.08 -3.89,1.89 -5.62,2.94m-7.29,-21.64c0.01,1.08 0.01,2.18 0.11,3.27c0.28,3.76 1.94,6.66 5.74,7.58c2.91,0.72 5.96,0.72 9.01,1.04c0,-2.96 0,-5.37 0,-7.98c-1.23,0 -2.29,0 -3.38,0c-1.46,0 -2.36,-0.7 -2.38,-2.2c-0.04,-3.86 -0.01,-7.71 -0.01,-11.82c1.97,0 3.8,0 5.86,0c0,-2.18 -0.05,-4.14 0.01,-6.09c0.04,-1.22 -0.5,-1.53 -1.59,-1.49c-1.33,0.06 -2.69,0.02 -4.28,0.02c0,-2.45 0,-4.68 0,-6.98c-3.15,0 -6.01,0 -9.16,0c0,2.35 0,4.56 0,6.8c-1.28,0.12 -2.34,0.19 -3.38,0.3c0,2.55 0,4.9 0,7.31c1.19,0.06 2.21,0.15 3.41,0.19c0,3.32 0,6.44 0,9.97m26.83,1.64c0,-1.37 0,-2.73 0.01,-4.08c0.05,-3.96 1.91,-5.82 5.9,-5.94c1,-0.03 1.97,0 3,0c0,-3.29 0,-6.31 0,-9.41c-3.73,-0.26 -6.27,1.73 -8.78,4.36c-0.11,-1.62 -0.2,-2.85 -0.28,-4.23c-2.43,0 -4.66,0.08 -6.9,-0.02c-1.59,-0.08 -2.12,0.37 -2.1,2.02c0.09,8.49 0.04,17 0.04,25.49c0,0.53 0.05,1.06 0.13,1.66c2.99,0 5.86,0 8.96,0c0,-3.22 0,-6.33 0,-9.86m9.7,-36.11c-1.32,4.3 0.97,10.48 5.25,13.78c2.51,-2.64 4.5,-5.6 5.35,-9.19c0.76,-3.27 -0.66,-6.39 -3.21,-7.42c-2.67,-1.04 -5.51,-0.06 -7.4,2.85m4.66,60.85c-1.15,0.93 -1.5,3.32 -0.44,4.64c0.39,0.46 1.41,0.41 2.1,0.57c0,-1.55 0.13,-2.73 -0.05,-3.82c-0.09,-0.53 -0.84,-0.94 -1.63,-1.39m0.7,8.92c-1.39,1.64 -0.74,3.51 1.82,4.37c0.05,-0.9 0.31,-1.76 0.13,-2.49c-0.2,-0.86 0.27,-2.49 -1.93,-1.86m1.67,-12.11c0.01,-0.28 0.14,-0.57 0.05,-0.81c-0.28,-0.72 -0.65,-1.42 -0.97,-2.11c-0.5,0.39 -1.28,0.7 -1.37,1.14c-0.14,0.9 0.05,1.89 0.14,2.82c0.69,-0.24 1.41,-0.46 2.13,-1.04m-3.45,22.16c0.14,0.59 0.31,1.2 0.52,1.95c2.17,-1.06 2.51,-2.55 2.12,-4.52c-1.72,-0.1 -2.43,0.77 -2.61,2.54m-11.48,-2.22c-0.97,-0.98 -1.59,-2.94 -3.84,-1.2c0.82,1.11 1.56,2.16 2.56,3.51c0.63,-0.94 1.01,-1.49 1.28,-2.33m2.13,3.03c-0.66,0.19 -1.37,0.43 -2.06,0.63c-0.01,0.28 -0.04,0.55 -0.05,0.84c1.33,0.59 2.69,1.2 4.06,1.82c1.01,-2.42 -0.54,-2.64 -1.92,-3.29m-19.9,-33.63c-0.27,0.66 -0.52,1.3 -0.84,2.18c1.08,0 1.78,0.16 2.28,-0.03c0.65,-0.3 1.23,-0.93 1.8,-1.39c-0.64,-0.34 -1.27,-0.72 -1.92,-0.96c-0.27,-0.1 -0.65,0.08 -1.29,0.24m12.36,14.5c-0.43,-0.57 -0.74,-1.35 -1.29,-1.68c-0.35,-0.18 -1.08,0.26 -1.64,0.43c0.28,0.8 0.59,1.59 0.84,2.38c0.69,-0.28 1.39,-0.55 2.1,-1.12m0.82,4.03c-0.7,0 -1.42,0 -2.43,0c0.39,0.94 0.46,1.58 0.82,1.89c0.5,0.41 1.33,0.96 1.78,0.78c1.48,-0.63 0.52,-1.58 -0.13,-2.69m-5.74,-10.82c0.5,2.55 1.08,2.86 3.22,1.4c-0.7,-1.11 -1.01,-2.85 -3.22,-1.4m18.81,27.32c-0.69,0.62 -1.41,1.22 -2.13,1.84c0.18,0.3 0.36,0.59 0.54,0.93c1.1,-0.41 2.21,-0.8 3.32,-1.2c-0.46,-0.53 -0.93,-1.06 -1.74,-1.55m-11.66,-11.36c-0.74,0.03 -1.48,0.08 -2.21,0.12c-0.05,0.19 -0.11,0.43 -0.14,0.63c0.54,0.59 1,1.33 1.67,1.76c0.23,0.16 1.29,-0.28 1.33,-0.55c0.09,-0.53 -0.27,-1.14 -0.62,-1.95m-7.37,-21.22c-1.5,-0.94 -2.47,-0.68 -2.76,1.49c0.7,0.16 1.5,0.62 2.12,0.44c0.39,-0.1 0.58,-1.08 0.63,-1.92m-8.83,0.41c-0.54,-0.53 -1.06,-1.08 -1.56,-1.62c-0.36,0.44 -1.01,0.94 -0.93,1.33c0.11,0.59 0.69,1.11 1.1,1.66c0.44,-0.37 0.85,-0.72 1.42,-1.35l-0.01,-0.02l0.01,0l-0.01,0l-0.01,0l-0.01,0z" fill="none" id="svg_1" transform="matrix(1 0 0 1 0 0)"/>
   <path d="m105.71,52.75c0,-0.33 0,-0.63 0.11,-1.24c0.14,-1.02 0.22,-1.77 0.22,-2.51c0,-8.3 0.04,-16.58 -0.01,-24.88c-0.01,-1.64 0.5,-2.11 2.06,-2.04c2.13,0.12 4.3,0.02 6.45,0.02c0,0 0.01,0.18 0.01,0.43c0,0.43 0,0.62 0,0.8c0.01,0.15 0.01,0.33 0.01,0.78c0.05,0.68 0.13,1.08 0.18,1.49c0.11,0 0.22,0 0.35,0.02c0.09,-0.34 0.18,-0.68 0.27,-1.02c1.48,-0.86 2.84,-2.07 4.46,-2.49c6.79,-1.84 11.95,0.5 15.01,6.6c3.3,6.56 2.06,14.14 -2.95,19.53c-0.13,0.15 -0.18,0.37 -0.43,0.7c-2.87,0.94 -5.58,1.73 -8.31,2.49c-0.44,0.12 -0.84,0.39 -1.27,0.57c-0.22,-0.24 -0.43,-0.55 -0.66,-0.7c-0.27,-0.15 -4.34,-2.11 -6.26,-3.04c0,3.18 0.01,6.88 -0.01,10.59c-0.01,1.29 -0.36,2.55 -0.35,3.82c0.09,6.31 0.18,12.63 0.39,18.92c0.05,1.74 -0.59,2.29 -2.2,2.2c-2.28,-0.1 -4.53,-0.02 -6.79,-0.02c0,-8.21 0.01,-16.08 -0.01,-23.98c0,-1.2 -0.31,-2.42 -0.54,-3.82c0.14,-0.94 0.39,-1.66 0.62,-2.49c-0.11,-0.33 -0.22,-0.52 -0.35,-0.7m12.85,-22.89c-4.42,1.76 -4.36,8.2 -2.61,10.95c1.23,1.94 4.34,3.25 6.26,2.73c3.49,-0.94 5.75,-5.06 4.81,-8.9c-1.05,-4.28 -3.75,-5.92 -8.42,-4.78l-0.01,0l-0.01,0l-0.01,0.02l-0.01,-0.01l0,-0.01z" fill="#dac4d0" id="svg_2"/>
   <path d="m121.79,52.09c0.52,-0.28 0.92,-0.53 1.33,-0.66c2.7,-0.8 5.43,-1.55 8.3,-2.36c5.9,1.53 6.6,2.73 5.48,8.66c-0.97,5.13 -1.87,10.26 -2.74,15.42c-0.13,0.81 -0.01,1.68 -0.01,2.51c0.23,0.08 0.5,0.18 0.7,0.28c0.62,-0.72 1.37,-1.37 1.74,-2.2c1.97,-4.3 3.7,-8.67 3.49,-13.62c-0.22,-6.1 0.66,-12.07 3.75,-17.47c1.8,-3.14 5.16,-3.47 7.4,-0.59c2.28,2.96 2.43,6.38 1.5,9.9c-0.27,0.46 -0.62,1.33 -1.08,2.73c-2.06,3.21 -1.92,-1.08 -0.92,-0.52c-0.28,-0.3 -0.58,-0.63 -0.76,-1.12c-0.23,-0.5 0.31,0.19 0.52,-1.51c0.13,-0.18 0.11,-0.33 0.05,-0.59c-0.04,-0.28 0.18,-0.7 0.35,-1.04c0.01,-0.3 0,-0.53 -0.04,-0.9c0.01,-0.43 0.05,-0.72 0.2,-1.06c0,-0.57 -0.09,-1.11 -0.22,-1.8c-0.5,-1.22 -0.89,-2.26 -1.33,-3.31c-0.22,0 -0.44,0 -0.65,0.02c-0.43,1.14 -0.84,2.29 -1.29,3.5c-0.13,0.18 -0.11,0.33 -0.05,0.59c-0.11,0.55 -0.2,0.98 -0.36,1.48c-0.05,0.34 -0.04,0.57 -0.04,0.99c-0.09,1.11 -0.18,2.04 -0.35,3.03c-0.05,0.08 -0.11,0.15 -0.09,0.16c0.01,0.08 0.09,0.15 0.14,0.41c-0.04,0.7 -0.11,1.24 -0.27,1.86c-0.05,0.72 0,1.39 0.04,2.2c0,0.72 0,1.3 -0.11,1.94c0.11,0.3 0.31,0.53 0.52,0.94c0.28,0.88 0.58,1.55 0.84,2.26c-0.31,1.29 -0.97,2.6 -0.85,3.86c0.39,4.25 1.05,8.46 1.71,12.66c0.13,0.86 0.78,1.64 1.55,3.06c1.1,-1.76 2.17,-2.91 2.61,-4.3c1.48,-4.5 2.74,-9.08 4.04,-13.63c0.22,-0.8 0.22,-1.68 0.62,-2.35c0.27,-0.46 1.1,-0.96 1.51,-0.86c0.46,0.12 1.15,0.99 1.06,1.42c-1.48,6.82 -2.43,13.87 -6.53,19.79c-1.8,2.58 -4.06,2.85 -6.67,1.02c-3.02,-2.1 -4.23,-5.37 -5.25,-8.72c-0.18,-0.59 -0.39,-1.22 -0.65,-2.2c-1.8,3.66 -2.69,7.83 -7.32,7.66c-5.4,-0.19 -5.4,-4.95 -6.35,-9.16c-0.46,0.66 -0.74,0.96 -0.93,1.33c-1.06,1.9 -2.7,2.54 -4.76,2.35c-2.02,-0.18 -3.41,-1.33 -4.06,-3.21c-1.46,-4.17 -1.15,-8.38 0.36,-12.4c0.84,-2.26 2.57,-4.21 4.02,-6.38m4.47,4.54c-2.17,4.03 -3.26,8.31 -2.47,13c2.99,-4.95 5.39,-10.1 6.18,-15.88c-0.14,-0.15 -0.31,-0.3 -0.46,-0.44c-1.01,1.02 -2.04,2.07 -3.21,3.34m7.72,0.08c-0.23,1.46 -0.52,2.91 -0.74,4.37c0.22,0.02 0.46,0.03 0.66,0.06c0.39,-2.07 0.76,-4.12 1.15,-6.19c-0.14,-0.03 -0.35,-0.08 -0.5,-0.15c-0.18,0.52 -0.39,1.02 -0.62,1.89l0,0.02l0,-0.02l0.01,0l0.01,0l0.01,0.01l0,0.01l0.01,-0.01zl0,0z" fill="#415176" id="svg_3"/>
   <path d="m59.47,39.25c0,-3.32 0,-6.44 0,-9.76c-1.17,-0.06 -2.2,-0.15 -3.38,-0.19c0,-2.42 0,-4.77 0,-7.31c1.05,-0.08 2.04,-0.18 3.32,-0.3c0,-2.26 0,-4.46 0,-6.8c3.14,0 5.96,0 9.07,0c0,2.31 0,4.5 0,6.98c1.56,0 2.92,0.03 4.23,-0.02c1.08,-0.03 1.63,0.28 1.56,1.49c-0.05,1.94 -0.01,3.9 -0.01,6.09c-2.04,0 -3.84,0 -5.78,0c0,4.1 -0.01,7.96 0.01,11.82c0.01,1.49 0.89,2.2 2.36,2.2c1.06,0 2.13,0 3.32,0c0,2.6 0,4.99 0,7.98c-3.06,-0.33 -6.05,-0.34 -8.95,-1.04c-3.71,-0.93 -5.39,-3.84 -5.66,-7.58c-0.09,-1.08 -0.05,-2.18 -0.11,-3.45l-0.01,-0.03l0.04,0.02l0,-0.06l0.01,0.02l-0.01,-0.02l-0.01,-0.02l0,-0.01z" fill="#3F4F74" id="svg_4"/>
   <path d="m86.03,41.3c0,3.31 0,6.42 0,9.63c-3.08,0 -5.94,0 -8.91,0c-0.04,-0.62 -0.13,-1.14 -0.13,-1.66c0,-8.49 0.04,-17 -0.04,-25.49c-0.01,-1.66 0.52,-2.1 2.06,-2.02c2.2,0.12 4.46,0.02 6.83,0.02c0.09,1.39 0.18,2.62 0.28,4.23c2.51,-2.64 4.99,-4.62 8.69,-4.36c0,3.06 0,6.1 0,9.41c-1.01,0 -1.97,-0.02 -2.99,0c-3.97,0.15 -5.78,1.98 -5.82,5.94c-0.01,1.37 0,2.73 -0.01,4.28l0.04,0.02l0,0.03l0,-0.02l0,0.02l0,0.02l0,-0.01l0,-0.02z" fill="#415176" id="svg_5"/>
   <path d="m66.7,61.44c1.67,-1.42 3,-3.4 5.55,-3.31c0.63,0.02 1.51,0 1.8,0.37c0.28,0.41 0.23,1.42 -0.09,1.84c-1.67,2.04 -3.32,4.1 -5.17,5.92c-1.19,1.2 -1.93,2.18 -1.42,4.02c0.52,1.89 0.58,3.9 0.63,5.86c0.01,0.55 -0.52,1.12 -0.76,1.73c-0.52,-0.33 -1.14,-0.55 -1.48,-0.99c-1.08,-1.37 -1.37,-3.6 -3.8,-3.38c-0.66,0.06 -1.42,0.24 -2.02,0.57c-1.59,0.93 -3.06,2 -4.62,2.9c-1.29,0.72 -2.43,1.46 -1.63,3.74c-3.57,-0.99 -6.75,-1.9 -9.88,-2.8c-0.01,-0.18 -0.04,-0.41 -0.05,-0.59c1.48,-0.34 2.95,-0.66 4.58,-1.02c-0.44,-0.81 -0.76,-1.46 -1.37,-2.54c1.23,0 2.13,-0.16 2.99,0.03c2.92,0.72 3.48,0.55 5.48,-2.36c-4.53,-1.42 -9.14,-0.24 -13.72,-0.93c0.05,-1.49 1.14,-1.73 2.17,-1.9c5.03,-0.94 10.06,-1.95 15.13,-2.73c2.56,-0.41 4.84,-1.11 6.79,-3.21c0.5,-0.44 0.7,-0.81 0.97,-1.2l0.01,-0.03l-0.01,0l-0.09,0l0,0.02l0.01,0l0.01,-0.01l0.01,0z" fill="#8f5774" id="svg_6"/>
   <path d="m96.37,23.33c0.01,-0.28 0.01,-0.53 0.2,-1.02c2.83,-0.19 5.51,-0.19 8.37,-0.19c0,0.86 0,1.58 0,2.33c0,5.84 0.01,11.68 0,17.54c-0.01,3.21 -0.11,6.38 -0.18,9.58c-2.69,0 -5.39,0 -8.37,0c0,-8.12 0,-16.14 0.05,-24.44c0,-1.48 -0.04,-2.6 -0.09,-3.76l0,-0.02l0,-0.02l0.01,-0.03l0.01,0.01l0,0.02z" fill="#3C4D74" id="svg_7"/>
   <path d="m95.69,4.84c1.82,-2.76 4.6,-3.74 7.24,-2.7c2.52,0.99 3.95,4.14 3.2,7.42c-0.84,3.6 -2.84,6.56 -5.32,9.19c-4.23,-3.31 -6.51,-9.45 -5.12,-13.9m7.1,4.43c0.93,-1.24 1.06,-2.69 -0.05,-3.69c-0.65,-0.62 -2.02,-1.02 -2.84,-0.78c-0.82,0.26 -1.74,1.37 -1.92,2.25c-0.14,0.8 0.46,1.95 1.1,2.6c1.06,1.04 2.36,0.68 3.71,-0.41l0.01,0.02l-0.01,0.02l0,0.02l0,-0.02l0,-0.01z" fill="#E21020" id="svg_8"/>
   <path d="m104.93,51.52c-0.09,-3.21 0,-6.39 0.01,-9.58c0.01,-5.84 0,-11.68 0,-17.54c0,-0.72 0,-1.46 0,-2.33c-2.92,0 -5.56,0 -8.38,0.08c0.14,-0.24 0.5,-0.81 0.78,-0.81c5.51,-0.03 10.94,-0.02 16.46,0.02c0.22,0 0.43,0.28 0.65,0.57c-2.12,0.16 -4.28,0.26 -6.44,0.12c-1.59,-0.08 -2.06,0.41 -2.06,2.04c0.05,8.3 0.04,16.58 0.01,24.88c0,0.77 -0.05,1.49 -0.22,2.35c-0.31,0.15 -0.52,0.16 -0.84,0.16l0.01,0l0.01,0l-0.01,0.03l0.01,0.02l-0.01,0.02l0.02,-0.03z" fill="none" id="svg_9"/>
   <path d="m144.57,64.43c2.7,-2.31 0.52,12.4 -1.67,-4.43c3.88,-0.43 3.88,-0.57 3.97,-0.86c0.97,-2.07 2.69,-3.58 4.36,-10.95c-0.52,5.74 -1.08,5.68 -0.82,6c1.78,-0.59 1.24,0.44 0.84,0.68c-0.39,0.24 -2.25,4.92 -3.56,7.49l-3.1,2.08l0,0l-0.01,0l0.01,0.02l0,-0.02l-0.01,-0.02l0,0.01l-0.01,0z" fill="#415176" id="svg_10"/>
   <path d="m100.39,65.82c0.62,0.44 1.32,0.88 1.42,1.39c0.2,1.11 0.05,2.26 0.05,3.82c-0.66,-0.16 -1.71,-0.1 -2.06,-0.57c-1.06,-1.3 -0.69,-3.72 0.62,-4.64l-0.01,0l0,0.02l-0.01,0l0,-0.01z" fill="#8f5774" id="svg_11" transform="matrix(1 0 0 1 0 0)"/>
   <path d="m101.09,74.7c2.04,-0.57 1.59,1.06 1.8,1.92c0.18,0.77 -0.05,1.59 -0.13,2.49c-2.55,-0.84 -3.19,-2.73 -1.67,-4.41l-0.01,0l0.01,0z" fill="#8f5774" id="svg_12" transform="matrix(1 0 0 1 0 0)"/>
   <path d="m66.7,61.26c-0.23,0.53 -0.5,0.93 -0.82,1.29c-1.56,-0.26 -2.02,-1.39 -1.87,-2.64c0.09,-0.62 0.84,-1.14 1.28,-1.73c0.44,0.55 0.97,1.08 1.29,1.73c0.18,0.3 0.05,0.8 0.09,1.37l0.01,0.02l0.01,-0.02l0.01,0l0,-0.01z" fill="#8f5774" id="svg_13"/>
   <path d="m102.59,62.82c-0.69,0.41 -1.41,0.63 -2.12,0.88c-0.05,-0.94 -0.31,-1.92 -0.14,-2.82c0.09,-0.44 0.89,-0.78 1.33,-1.14c0.35,0.7 0.66,1.4 0.97,2.11c0.09,0.24 -0.04,0.53 -0.05,0.98l0.01,-0.02l-0.01,0l0,0.02l0.01,0l0,-0.01z" fill="#8f5774" id="svg_14"/>
   <path d="m99.23,84.64c0.18,-1.64 0.85,-2.49 2.57,-2.38c0.39,1.94 0.05,3.45 -2.1,4.52c-0.2,-0.78 -0.36,-1.37 -0.5,-2.11l0.01,-0.02l0.01,-0.02l0,-0.02l0.01,0.01l0,0.01z" fill="#8f5774" id="svg_15"/>
   <path d="m105.98,53.58c-0.22,0.72 -0.44,1.46 -0.7,2.29c-0.22,0.43 -0.31,0.84 -0.58,0.98c-0.46,0.26 -1.19,0.63 -1.51,0.46c-0.39,-0.18 -0.7,-1.2 -0.58,-1.48c0.62,-0.93 1.42,-1.64 2.45,-2.44c0.5,0.06 0.66,0.12 0.89,0.16l0.01,0l0,0.03l0,0.02l0,0.02l0.01,0l0,-0.02z" fill="#8f5774" id="svg_16"/>
   <path d="m87.88,82.72c-0.35,0.7 -0.69,1.29 -1.32,2.2c-1,-1.37 -1.74,-2.42 -2.55,-3.51c2.21,-1.76 2.84,0.19 3.85,1.33l0,0.02l0,-0.02l0.01,0l0.01,0l0,-0.01z" fill="#8f5774" id="svg_17"/>
   <path d="m90.05,85.7c1.27,0.57 2.78,0.81 1.8,3.22c-1.33,-0.62 -2.69,-1.22 -4.02,-1.82c0.01,-0.28 0.04,-0.55 0.05,-0.84c0.66,-0.19 1.37,-0.43 2.17,-0.57l-0.01,0l0,0.02l0,0.02l0.01,-0.01l0,-0.01z" fill="#8f5774" id="svg_18"/>
   <path d="m70.33,51.94c0.5,-0.1 0.85,-0.3 1.15,-0.18c0.65,0.26 1.27,0.63 1.91,0.96c-0.62,0.46 -1.1,1.08 -1.8,1.39c-0.52,0.24 -1.17,0.03 -2.25,0.03c0.35,-0.86 0.62,-1.51 1,-2.22l0,0.02l-0.01,0z" fill="#8f5774" id="svg_19"/>
   <path d="m82.44,66.66c-0.66,0.43 -1.39,0.7 -2.06,0.98c-0.28,-0.8 -0.58,-1.59 -0.84,-2.38c0.58,-0.16 1.28,-0.62 1.63,-0.43c0.59,0.34 0.89,1.11 1.29,1.84l0,-0.02l-0.01,0l0,0.01l0,-0.01z" fill="#8f5774" id="svg_20"/>
   <path d="m83.34,70.66c0.58,0.96 1.51,1.9 0.04,2.54c-0.43,0.16 -1.27,-0.37 -1.74,-0.78c-0.36,-0.3 -0.43,-0.94 -0.78,-1.89c0.97,0 1.71,0 2.51,0.12l0,-0.02l-0.01,0l0,0.02l-0.01,0.02l-0.01,-0.01z" fill="#8f5774" id="svg_21" transform="matrix(1 0 0 1 0 0)"/>
   <path d="m77.71,59.63c2.1,-1.35 2.38,0.39 3.1,1.49c-2.12,1.46 -2.74,1.14 -3.1,-1.49z" fill="#8f5774" id="svg_22"/>
   <path d="m96.36,87.04c0.63,0.52 1.1,1.04 1.56,1.58c-1.1,0.41 -2.2,0.8 -3.3,1.2c-0.18,-0.3 -0.36,-0.59 -0.54,-0.93c0.69,-0.62 1.41,-1.22 2.28,-1.86l0,0.02l0,-0.01z" fill="#8f5774" id="svg_23"/>
   <path d="m84.71,75.84c0.27,0.7 0.62,1.3 0.52,1.86c-0.04,0.28 -1.08,0.72 -1.32,0.55c-0.64,-0.43 -1.1,-1.14 -1.64,-1.76c0.04,-0.19 0.11,-0.43 0.14,-0.63c0.7,-0.03 1.46,-0.08 2.29,-0.02l0.01,0z" fill="#8f5774" id="svg_24" transform="matrix(1 0 0 1 0 0)"/>
   <path d="m77.43,54.62c-0.18,0.7 -0.35,1.68 -0.7,1.82c-0.63,0.16 -1.39,-0.26 -2.1,-0.44c0.28,-2.18 1.24,-2.42 2.83,-1.37l0,-0.02l-0.01,0l-0.01,0l0,0.01l0,-0.01z" fill="#8f5774" id="svg_25"/>
   <path d="m68.52,55.05c-0.5,0.5 -0.92,0.86 -1.33,1.2c-0.39,-0.55 -0.97,-1.06 -1.08,-1.66c-0.05,-0.37 0.62,-0.88 0.93,-1.33c0.52,0.53 1.05,1.08 1.5,1.77l-0.01,0.02l-0.01,0l0.01,0l-0.01,0l-0.01,0l0.01,0z" fill="#8f5774" id="svg_26"/>
   <path d="m96.28,23.42c0.18,1.04 0.22,2.18 0.2,3.45c-0.14,-1.02 -0.23,-2.2 -0.2,-3.45z" fill="none" id="svg_27"/>
   <path d="m115.25,24.54c0.01,0.39 -0.09,0.72 -0.18,1.06c-0.11,0 -0.22,0 -0.35,-0.02c-0.05,-0.41 -0.13,-0.81 -0.18,-1.39c0.2,-0.02 0.39,0.12 0.65,0.33l0.01,0.02l0.01,0l0.01,0l0.02,0z" fill="none" id="svg_28"/>
   <path d="m105.98,53.44c-0.2,0.06 -0.43,0 -0.74,-0.12c-0.01,-0.19 0.11,-0.37 0.35,-0.53c0.2,0.15 0.31,0.34 0.43,0.66l-0.01,0l-0.01,-0.02l-0.01,0.01z" fill="none" id="svg_29"/>
   <path d="m118.71,29.8c4.5,-1.08 7.24,0.55 8.31,4.83c0.92,3.82 -1.29,7.96 -4.81,8.9c-1.92,0.52 -5.03,-0.8 -6.26,-2.73c-1.72,-2.76 -1.78,-9.19 2.76,-11l0.01,0z" fill="none" id="svg_31"/>
   <path d="m126.34,56.48c1.1,-1.14 2.12,-2.18 3.15,-3.22c0.14,0.15 0.31,0.3 0.46,0.44c-0.76,5.78 -3.2,10.93 -6.18,15.88c-0.78,-4.65 0.28,-8.92 2.56,-13.11l0.01,0.02l0.01,0l0,-0.01z" fill="none" id="svg_32"/>
   <path d="m146.28,67.98c-5.51,-3.14 -10.87,-6.04 -17.28,-9.03c-1.48,-0.06 -1.91,-0.02 -2.34,0.02c0.05,0.88 0.14,1.74 0.64,3.04c0.18,1.39 -0.01,2.35 -0.27,3.31c0.35,0.84 0.63,1.64 1.15,2.9c0.01,0.53 -0.13,0.66 -0.31,0.78c0.52,1.42 1.05,2.86 2.02,4.7c0.39,0.8 0.27,1.14 0.13,1.51c0.52,0.62 1.05,1.26 2.04,2.22c0.92,0.55 0.85,0.77 0.28,0.93c2.36,1.76 4.73,3.5 7.09,5.24c1.27,0 2.51,0.02 3.73,0.02c2.51,-1.59 4.99,-3.22 7.4,-5.32c0.31,-1.2 0.65,-1.89 1.06,-2.58c-0.27,-0.44 -0.5,-0.9 -0.92,-1.76c-0.05,-0.7 0.09,-0.99 0.22,-1.29c-0.5,-0.43 -0.97,-0.84 -1.94,-1.59c-0.92,-0.53 -0.85,-0.72 -0.31,-0.93c-0.76,-0.63 -1.51,-1.3 -2.47,-2.2l0.05,0l0.01,0.02l-0.01,0l0,0.02l0.01,0.03l0.01,-0.02l0,-0.01z" fill="none" id="svg_33"/>
   <path d="m133.58,56.13c0.44,-1.33 0.82,-2.35 1.23,-3.38c0.35,0.1 0.66,0.18 1.05,0.28c-0.78,4.03 -1.63,8.11 -2.42,12.15c-0.5,-0.03 -0.97,-0.1 -1.46,-0.15c0.54,-2.88 1.06,-5.76 1.63,-8.94l0,0l0,0.02l0.01,0l-0.01,0l-0.01,0.02l-0.01,0l-0.01,0z" fill="#415176" id="svg_34"/>
   <path d="m102.72,9.4c-1.24,0.98 -2.55,1.33 -3.61,0.28c-0.64,-0.62 -1.27,-1.82 -1.1,-2.6c0.18,-0.88 1.08,-1.98 1.92,-2.25c0.82,-0.26 2.17,0.15 2.84,0.78c1.14,1.02 1.01,2.44 -0.04,3.81l-0.01,0l-0.01,0l0.01,-0.02l0,-0.02l-0.01,0.01l0.01,0.01z" fill="#F6F0F0" id="svg_43"/>
   <path d="m149.38,53.96c-0.39,1.24 -0.69,2.36 -1.01,3.51c-0.05,1.14 -0.14,2.33 -0.22,3.47c1.06,-2 2.1,-4.02 3.18,-6.04c0.13,-1.62 0.23,-3.27 0.36,-4.88c-0.7,1.3 -1.46,2.55 -2.28,3.92l0,-0.02l0,0.02l-0.01,0l0,0.01l-0.01,0z" fill="#415176" id="svg_45"/>
  </g>
 </g>
</svg>