<?xml version="1.0"?>
<svg width="200" height="90" xmlns="http://www.w3.org/2000/svg" xmlns:svg="http://www.w3.org/2000/svg" enable-background="new 0 0 313 235" version="1.1" xml:space="preserve">
 <g class="layer">
  <title>Layer 1</title>
  <g id="svg_35">
   <path d="m132.3,94c-30.92,0 -61.61,0 -92.3,0c0,-32.34 0,-64.66 0,-97c43,0 86,0 129,0c0,32.34 0,64.66 0,97c-12.19,0 -24.31,0 -36.7,0m-25.91,-41.86c-0.75,0.82 -1.64,1.55 -2.22,2.47c-0.18,0.28 0.18,1.3 0.58,1.5c0.35,0.18 1.07,-0.18 1.56,-0.46c0.23,-0.15 0.35,-0.56 0.75,-0.67c0.18,1.21 0.46,2.45 0.46,3.64c0.04,7.95 0.01,15.93 0.01,24.23c2.3,0 4.58,-0.08 6.89,0.02c1.68,0.08 2.31,-0.46 2.23,-2.22c-0.2,-6.38 -0.31,-12.76 -0.39,-19.12c-0.01,-1.3 0.35,-2.57 0.35,-3.86c0.04,-3.76 0.01,-7.52 0.01,-10.7c1.95,0.95 4.15,2 6.36,3.07c0.28,0.15 0.46,0.46 0.52,0.91c-1.34,2.1 -3.12,4.06 -3.98,6.36c-1.51,4.04 -1.87,8.32 -0.36,12.53c0.66,1.91 2.08,3.03 4.14,3.24c2.08,0.18 3.78,-0.44 4.85,-2.37c0.2,-0.37 0.5,-0.69 0.94,-1.34c0.93,4.25 0.93,9.03 6.45,9.26c4.72,0.18 5.66,-4.04 7.46,-7.74c0.31,0.99 0.5,1.61 0.67,2.22c1.06,3.37 2.27,6.67 5.34,8.81c2.63,1.86 4.98,1.6 6.8,-1.03c4.15,-5.98 5.15,-13.12 6.63,-20c0.09,-0.41 -0.62,-1.31 -1.09,-1.43c-0.44,-0.1 -1.29,0.39 -1.56,0.87c-0.39,0.69 -0.39,1.6 -0.62,2.37c-1.33,4.61 -2.62,9.26 -4.1,13.77c-0.46,1.4 -1.56,2.58 -2.67,4.34c-0.75,-1.43 -1.42,-2.24 -1.56,-3.09c-0.66,-4.25 -1.3,-8.54 -1.72,-12.79c-0.11,-1.25 0.58,-2.58 1.11,-4.03c1.28,-2.45 2.54,-4.88 3.91,-7.64c0.31,-0.87 0.66,-1.75 0.9,-2.61c0.93,-3.55 0.77,-6.98 -1.52,-10c-2.27,-2.91 -5.7,-2.57 -7.52,0.6c-3.16,5.49 -4.01,11.52 -3.83,17.65c0.18,5 -1.52,9.42 -3.59,13.76c-0.39,0.85 -1.18,1.5 -1.79,2.22c-0.23,-0.08 -0.5,-0.18 -0.71,-0.28c0,-0.85 -0.11,-1.75 0.01,-2.54c0.9,-5.19 1.79,-10.39 2.78,-15.58c1.16,-5.98 0.46,-7.2 -5.38,-9.06c0.09,-0.18 0.13,-0.41 0.27,-0.54c5.12,-5.43 6.4,-13.12 3.01,-19.73c-3.16,-6.16 -8.39,-8.54 -15.28,-6.67c-1.64,0.43 -3.01,1.66 -4.72,2.4c-0.18,-0.15 -0.39,-0.28 -0.59,-0.67c-0.01,-0.16 -0.01,-0.33 0.13,-0.63c-0.04,-0.24 -0.11,-0.46 -0.14,-0.94c0,0 -0.01,-0.18 -0.09,-0.53c-0.22,-0.15 -0.43,-0.41 -0.65,-0.41c-5.59,-0.03 -11.17,-0.03 -16.76,-0.02c-0.35,0 -0.66,0.58 -0.94,1.15c-0.01,0.28 -0.01,0.54 -0.28,1.03c0.09,1.15 0.14,2.35 0.28,3.9c0,8.09 0,16.15 0,24.37c3.04,0 5.79,0 8.83,0.02c0.2,-0.02 0.39,-0.03 0.59,0.26c0,0.33 0,0.64 -0.18,1.03c-0.13,0.15 -0.27,0.28 -0.66,0.56m-38.83,7.78c-0.01,-0.41 0.11,-0.89 -0.05,-1.16c-0.36,-0.63 -0.9,-1.13 -1.33,-1.75c-0.44,0.56 -1.24,1.09 -1.3,1.75c-0.18,1.27 0.28,2.4 1.51,2.85c-1.79,2.02 -4.09,2.76 -6.68,3.15c-5.15,0.81 -10.27,1.84 -15.39,2.76c-1.07,0.18 -2.15,0.41 -2.22,1.92c4.64,0.67 9.34,-0.53 13.97,0.94c-2,2.94 -2.59,3.15 -5.59,2.38c-0.85,-0.19 -1.81,-0.03 -3.04,-0.03c0.62,1.09 0.93,1.76 1.38,2.57c-1.68,0.37 -3.17,0.71 -4.66,1.03c0.01,0.18 0.04,0.41 0.05,0.6c3.21,0.91 6.44,1.82 10.05,2.83c-0.85,-2.31 0.31,-3.01 1.65,-3.78c1.64,-0.91 3.12,-2 4.72,-2.93c0.62,-0.34 1.34,-0.53 2.06,-0.58c2.47,-0.24 2.76,2.02 3.87,3.42c0.36,0.44 1.01,0.69 1.51,1c0.28,-0.58 0.83,-1.15 0.79,-1.75c-0.09,-1.97 -0.13,-4.03 -0.65,-5.92c-0.52,-1.88 0.23,-2.88 1.47,-4.06c1.91,-1.88 3.6,-3.91 5.29,-5.98c0.35,-0.41 0.39,-1.43 0.09,-1.86c-0.27,-0.37 -1.18,-0.34 -1.81,-0.37c-2.58,-0.08 -3.92,1.91 -5.66,2.97m-7.35,-21.87c0.01,1.09 0.01,2.2 0.11,3.3c0.28,3.8 1.96,6.73 5.78,7.66c2.93,0.73 6.01,0.73 9.08,1.05c0,-2.99 0,-5.43 0,-8.06c-1.24,0 -2.31,0 -3.41,0c-1.47,0 -2.38,-0.71 -2.4,-2.22c-0.04,-3.9 -0.01,-7.79 -0.01,-11.94c1.99,0 3.83,0 5.91,0c0,-2.2 -0.05,-4.18 0.01,-6.15c0.04,-1.23 -0.5,-1.55 -1.6,-1.51c-1.34,0.06 -2.71,0.02 -4.31,0.02c0,-2.48 0,-4.73 0,-7.05c-3.17,0 -6.06,0 -9.23,0c0,2.37 0,4.61 0,6.87c-1.29,0.12 -2.36,0.19 -3.41,0.3c0,2.58 0,4.95 0,7.39c1.2,0.06 2.23,0.15 3.44,0.19c0,3.35 0,6.51 0,10.07m27.04,1.66c0,-1.38 0,-2.76 0.01,-4.12c0.05,-4 1.92,-5.88 5.95,-6c1.01,-0.03 1.99,0 3.02,0c0,-3.32 0,-6.38 0,-9.51c-3.76,-0.26 -6.32,1.75 -8.85,4.41c-0.11,-1.64 -0.2,-2.88 -0.28,-4.27c-2.45,0 -4.7,0.08 -6.95,-0.02c-1.6,-0.08 -2.14,0.37 -2.12,2.04c0.09,8.58 0.04,17.18 0.04,25.76c0,0.54 0.05,1.07 0.13,1.68c3.01,0 5.91,0 9.03,0c0,-3.25 0,-6.4 0,-9.96m9.78,-36.49c-1.33,4.34 0.98,10.59 5.29,13.92c2.53,-2.67 4.54,-5.66 5.39,-9.29c0.77,-3.3 -0.67,-6.46 -3.24,-7.5c-2.69,-1.05 -5.55,-0.06 -7.46,2.88m4.7,61.48c-1.16,0.94 -1.51,3.35 -0.44,4.69c0.39,0.46 1.42,0.41 2.12,0.58c0,-1.57 0.13,-2.76 -0.05,-3.86c-0.09,-0.54 -0.85,-0.95 -1.64,-1.4m0.71,9.01c-1.4,1.66 -0.75,3.55 1.83,4.42c0.05,-0.91 0.31,-1.78 0.13,-2.52c-0.2,-0.87 0.27,-2.52 -1.95,-1.88m1.68,-12.24c0.01,-0.28 0.14,-0.58 0.05,-0.82c-0.28,-0.73 -0.66,-1.43 -0.98,-2.13c-0.5,0.39 -1.29,0.71 -1.38,1.15c-0.14,0.91 0.05,1.91 0.14,2.85c0.7,-0.24 1.42,-0.46 2.15,-1.05m-3.48,22.39c0.14,0.6 0.31,1.21 0.52,1.97c2.19,-1.07 2.53,-2.58 2.14,-4.57c-1.73,-0.1 -2.45,0.78 -2.63,2.57m-11.57,-2.24c-0.98,-0.99 -1.6,-2.97 -3.87,-1.21c0.83,1.12 1.57,2.18 2.58,3.55c0.63,-0.95 1.02,-1.51 1.29,-2.35m2.15,3.06c-0.67,0.19 -1.38,0.43 -2.08,0.64c-0.01,0.28 -0.04,0.56 -0.05,0.85c1.34,0.6 2.71,1.21 4.09,1.84c1.02,-2.45 -0.54,-2.67 -1.94,-3.32m-20.06,-33.98c-0.27,0.67 -0.52,1.31 -0.85,2.2c1.09,0 1.79,0.16 2.3,-0.03c0.66,-0.3 1.24,-0.94 1.81,-1.4c-0.65,-0.34 -1.28,-0.73 -1.94,-0.97c-0.27,-0.1 -0.66,0.08 -1.3,0.24m12.46,14.65c-0.43,-0.58 -0.75,-1.36 -1.3,-1.7c-0.35,-0.18 -1.09,0.26 -1.65,0.43c0.28,0.81 0.59,1.61 0.85,2.4c0.7,-0.28 1.4,-0.56 2.12,-1.13m0.83,4.07c-0.71,0 -1.43,0 -2.45,0c0.39,0.95 0.46,1.6 0.83,1.91c0.5,0.41 1.34,0.97 1.79,0.79c1.49,-0.64 0.52,-1.6 -0.13,-2.72m-5.78,-10.93c0.5,2.58 1.09,2.89 3.25,1.41c-0.71,-1.12 -1.02,-2.88 -3.25,-1.41m18.96,27.6c-0.7,0.63 -1.42,1.23 -2.15,1.86c0.18,0.3 0.36,0.6 0.54,0.94c1.11,-0.41 2.23,-0.81 3.35,-1.21c-0.46,-0.54 -0.94,-1.07 -1.75,-1.57m-11.75,-11.48c-0.75,0.03 -1.49,0.08 -2.23,0.12c-0.05,0.19 -0.11,0.43 -0.14,0.64c0.54,0.6 1.01,1.34 1.68,1.78c0.23,0.16 1.3,-0.28 1.34,-0.56c0.09,-0.54 -0.27,-1.15 -0.62,-1.97m-7.43,-21.44c-1.51,-0.95 -2.49,-0.69 -2.78,1.51c0.71,0.16 1.51,0.63 2.14,0.44c0.39,-0.1 0.58,-1.09 0.63,-1.94m-8.9,0.41c-0.54,-0.54 -1.07,-1.09 -1.57,-1.64c-0.36,0.44 -1.02,0.95 -0.94,1.34c0.11,0.6 0.7,1.12 1.11,1.68c0.44,-0.37 0.86,-0.73 1.43,-1.36l-0.01,-0.02l0.01,0l-0.01,0l-0.01,0l-0.01,0z" fill="none" id="svg_1"/>
   <path d="m106.22,52.32c0,-0.33 0,-0.64 0.11,-1.25c0.14,-1.03 0.22,-1.79 0.22,-2.54c0,-8.39 0.04,-16.75 -0.01,-25.14c-0.01,-1.66 0.5,-2.13 2.08,-2.06c2.15,0.12 4.33,0.02 6.5,0.02c0,0 0.01,0.18 0.01,0.43c0,0.43 0,0.63 0,0.81c0.01,0.15 0.01,0.33 0.01,0.79c0.05,0.69 0.13,1.09 0.18,1.51c0.11,0 0.22,0 0.35,0.02c0.09,-0.34 0.18,-0.69 0.27,-1.03c1.49,-0.87 2.86,-2.09 4.49,-2.52c6.84,-1.86 12.04,0.51 15.13,6.67c3.33,6.63 2.08,14.29 -2.97,19.73c-0.13,0.15 -0.18,0.37 -0.43,0.71c-2.89,0.95 -5.62,1.75 -8.37,2.52c-0.44,0.12 -0.85,0.39 -1.28,0.58c-0.22,-0.24 -0.43,-0.56 -0.67,-0.71c-0.27,-0.15 -4.37,-2.13 -6.31,-3.07c0,3.21 0.01,6.95 -0.01,10.7c-0.01,1.3 -0.36,2.58 -0.35,3.86c0.09,6.38 0.18,12.76 0.39,19.12c0.05,1.76 -0.59,2.31 -2.22,2.22c-2.3,-0.1 -4.57,-0.02 -6.84,-0.02c0,-8.3 0.01,-16.25 -0.01,-24.23c0,-1.21 -0.31,-2.45 -0.54,-3.86c0.14,-0.95 0.39,-1.68 0.62,-2.52c-0.11,-0.33 -0.22,-0.53 -0.35,-0.71m12.95,-23.13c-4.45,1.78 -4.39,8.29 -2.63,11.06c1.24,1.96 4.37,3.28 6.31,2.76c3.52,-0.95 5.79,-5.11 4.85,-8.99c-1.06,-4.32 -3.78,-5.98 -8.49,-4.83l-0.01,0l-0.01,0l-0.01,0.02l-0.01,-0.01z" fill="#CCB1BF" id="svg_2"/>
   <path d="m122.43,51.65c0.52,-0.28 0.93,-0.54 1.34,-0.67c2.72,-0.81 5.47,-1.57 8.36,-2.38c5.95,1.55 6.65,2.76 5.52,8.75c-0.98,5.18 -1.88,10.37 -2.76,15.58c-0.13,0.82 -0.01,1.7 -0.01,2.54c0.23,0.08 0.5,0.18 0.71,0.28c0.62,-0.73 1.38,-1.38 1.75,-2.22c1.99,-4.34 3.73,-8.76 3.52,-13.76c-0.22,-6.16 0.67,-12.2 3.78,-17.65c1.81,-3.17 5.2,-3.51 7.46,-0.6c2.3,2.99 2.45,6.45 1.51,10c-0.27,0.46 -0.62,1.34 -1.09,2.76c-2.08,3.24 -1.94,-1.09 -0.93,-0.53c-0.28,-0.3 -0.58,-0.64 -0.77,-1.13c-0.23,-0.51 0.31,0.19 0.52,-1.53c0.13,-0.18 0.11,-0.33 0.05,-0.6c-0.04,-0.28 0.18,-0.71 0.35,-1.05c0.01,-0.3 0,-0.54 -0.04,-0.91c0.01,-0.43 0.05,-0.73 0.2,-1.07c0,-0.58 -0.09,-1.12 -0.22,-1.82c-0.5,-1.23 -0.9,-2.28 -1.34,-3.34c-0.22,0 -0.44,0 -0.66,0.02c-0.43,1.15 -0.85,2.31 -1.3,3.54c-0.13,0.18 -0.11,0.33 -0.05,0.6c-0.11,0.56 -0.2,0.99 -0.36,1.5c-0.05,0.34 -0.04,0.58 -0.04,1c-0.09,1.12 -0.18,2.06 -0.35,3.06c-0.05,0.08 -0.11,0.15 -0.09,0.16c0.01,0.08 0.09,0.15 0.14,0.41c-0.04,0.71 -0.11,1.25 -0.27,1.88c-0.05,0.73 0,1.4 0.04,2.22c0,0.73 0,1.31 -0.11,1.96c0.11,0.3 0.31,0.54 0.52,0.95c0.28,0.89 0.58,1.57 0.85,2.28c-0.31,1.3 -0.98,2.63 -0.86,3.9c0.39,4.29 1.06,8.55 1.72,12.79c0.13,0.87 0.79,1.66 1.56,3.09c1.11,-1.78 2.19,-2.94 2.63,-4.34c1.49,-4.55 2.76,-9.17 4.07,-13.77c0.22,-0.81 0.22,-1.7 0.62,-2.37c0.27,-0.46 1.11,-0.97 1.52,-0.87c0.46,0.12 1.16,1 1.07,1.43c-1.49,6.89 -2.45,14.01 -6.58,20c-1.81,2.61 -4.09,2.88 -6.72,1.03c-3.04,-2.12 -4.26,-5.43 -5.29,-8.81c-0.18,-0.6 -0.39,-1.23 -0.66,-2.22c-1.81,3.7 -2.71,7.91 -7.38,7.74c-5.44,-0.19 -5.44,-5 -6.4,-9.26c-0.46,0.67 -0.75,0.97 -0.94,1.34c-1.07,1.92 -2.72,2.57 -4.8,2.37c-2.04,-0.18 -3.44,-1.34 -4.09,-3.24c-1.47,-4.21 -1.16,-8.47 0.36,-12.53c0.85,-2.28 2.59,-4.25 4.05,-6.45m4.5,4.59c-2.19,4.07 -3.29,8.4 -2.49,13.14c3.01,-5 5.43,-10.21 6.23,-16.05c-0.14,-0.15 -0.31,-0.3 -0.46,-0.44c-1.02,1.03 -2.06,2.09 -3.24,3.37m7.78,0.08c-0.23,1.48 -0.52,2.94 -0.75,4.42c0.22,0.02 0.46,0.03 0.67,0.06c0.39,-2.09 0.77,-4.16 1.16,-6.25c-0.14,-0.03 -0.35,-0.08 -0.5,-0.15c-0.18,0.53 -0.39,1.03 -0.62,1.91l0,0.02l0,-0.02l0.01,0l0.01,0l0.01,0.01l0,0.01zl0,0z" fill="#415176" id="svg_3"/>
   <path d="m59.62,38.68c0,-3.35 0,-6.51 0,-9.86c-1.18,-0.06 -2.22,-0.15 -3.41,-0.19c0,-2.45 0,-4.82 0,-7.39c1.06,-0.08 2.06,-0.18 3.35,-0.3c0,-2.28 0,-4.51 0,-6.87c3.16,0 6.01,0 9.14,0c0,2.33 0,4.55 0,7.05c1.57,0 2.94,0.03 4.26,-0.02c1.09,-0.03 1.64,0.28 1.57,1.51c-0.05,1.96 -0.01,3.94 -0.01,6.15c-2.06,0 -3.87,0 -5.83,0c0,4.14 -0.01,8.04 0.01,11.94c0.01,1.51 0.9,2.22 2.38,2.22c1.07,0 2.15,0 3.35,0c0,2.63 0,5.04 0,8.06c-3.08,-0.33 -6.1,-0.34 -9.02,-1.05c-3.74,-0.94 -5.43,-3.88 -5.7,-7.66c-0.09,-1.09 -0.05,-2.2 -0.11,-3.49l-0.01,-0.03l0.04,0.02l0,-0.06l0.01,0.02l-0.01,-0.02l-0.01,-0.02l0,-0.01z" fill="#3F4F74" id="svg_4"/>
   <path d="m86.39,40.75c0,3.34 0,6.49 0,9.73c-3.1,0 -5.99,0 -8.98,0c-0.04,-0.63 -0.13,-1.15 -0.13,-1.68c0,-8.58 0.04,-17.18 -0.04,-25.76c-0.01,-1.68 0.52,-2.12 2.08,-2.04c2.22,0.12 4.49,0.02 6.88,0.02c0.09,1.4 0.18,2.65 0.28,4.27c2.53,-2.67 5.03,-4.67 8.76,-4.41c0,3.09 0,6.16 0,9.51c-1.02,0 -1.99,-0.02 -3.01,0c-4,0.15 -5.83,2 -5.87,6c-0.01,1.38 0,2.76 -0.01,4.32l0.04,0.02l0,0.03l0,-0.02l0,0.02l0,0.02l0,-0.01l0,-0.02z" fill="#415176" id="svg_5"/>
   <path d="m66.91,61.1c1.68,-1.43 3.02,-3.44 5.59,-3.34c0.63,0.02 1.52,0 1.81,0.37c0.28,0.41 0.23,1.43 -0.09,1.86c-1.68,2.06 -3.35,4.14 -5.21,5.98c-1.2,1.21 -1.95,2.2 -1.43,4.06c0.52,1.91 0.58,3.94 0.63,5.92c0.01,0.56 -0.52,1.13 -0.77,1.75c-0.52,-0.33 -1.15,-0.56 -1.49,-1c-1.09,-1.38 -1.38,-3.64 -3.83,-3.42c-0.67,0.06 -1.43,0.24 -2.04,0.58c-1.6,0.94 -3.08,2.02 -4.66,2.93c-1.3,0.73 -2.45,1.48 -1.64,3.78c-3.6,-1 -6.8,-1.92 -9.96,-2.83c-0.01,-0.18 -0.04,-0.41 -0.05,-0.6c1.49,-0.34 2.97,-0.67 4.62,-1.03c-0.44,-0.82 -0.77,-1.48 -1.38,-2.57c1.24,0 2.15,-0.16 3.01,0.03c2.94,0.73 3.51,0.56 5.52,-2.38c-4.57,-1.43 -9.21,-0.24 -13.83,-0.94c0.05,-1.51 1.15,-1.75 2.19,-1.92c5.07,-0.95 10.14,-1.97 15.25,-2.76c2.58,-0.41 4.88,-1.12 6.84,-3.24c0.5,-0.44 0.71,-0.82 0.98,-1.21l0.01,-0.03l-0.01,0l-0.09,0l0,0.02l0.01,0l0.01,-0.01z" fill="#786E8E" id="svg_6"/>
   <path d="m96.81,22.59c0.01,-0.28 0.01,-0.54 0.2,-1.03c2.85,-0.19 5.55,-0.19 8.44,-0.19c0,0.87 0,1.6 0,2.35c0,5.9 0.01,11.8 0,17.72c-0.01,3.24 -0.11,6.45 -0.18,9.68c-2.71,0 -5.43,0 -8.44,0c0,-8.2 0,-16.31 0.05,-24.69c0,-1.5 -0.04,-2.63 -0.09,-3.8l0,-0.02l0,-0.02l0.01,-0.03l0.01,0.01z" fill="#3C4D74" id="svg_7"/>
   <path d="m96.13,3.91c1.83,-2.79 4.64,-3.78 7.3,-2.73c2.54,1 3.98,4.18 3.23,7.5c-0.85,3.64 -2.86,6.63 -5.36,9.29c-4.26,-3.34 -6.56,-9.55 -5.16,-14.04m7.16,4.48c0.94,-1.25 1.07,-2.72 -0.05,-3.73c-0.66,-0.63 -2.04,-1.03 -2.86,-0.79c-0.83,0.26 -1.75,1.38 -1.94,2.27c-0.14,0.81 0.46,1.97 1.11,2.63c1.07,1.05 2.38,0.69 3.74,-0.41l0.01,0.02l-0.01,0.02l0,0.02l0,-0.02z" fill="#E21020" id="svg_8"/>
   <path d="m105.44,51.08c-0.09,-3.24 0,-6.46 0.01,-9.68c0.01,-5.9 0,-11.8 0,-17.72c0,-0.73 0,-1.48 0,-2.35c-2.94,0 -5.6,0 -8.45,0.08c0.14,-0.24 0.5,-0.82 0.79,-0.82c5.55,-0.03 11.03,-0.02 16.59,0.02c0.22,0 0.43,0.28 0.66,0.58c-2.14,0.16 -4.31,0.26 -6.49,0.12c-1.6,-0.08 -2.08,0.41 -2.08,2.06c0.05,8.39 0.04,16.75 0.01,25.14c0,0.78 -0.05,1.51 -0.22,2.37c-0.31,0.15 -0.52,0.16 -0.85,0.16l0.01,0l0.01,0l-0.01,0.03l0.01,0.02l-0.01,0.02l0.02,-0.03z" fill="none" id="svg_9"/>
   <path d="m145.39,64.12c2.72,-2.33 0.52,12.53 -1.68,-4.48c3.91,-0.43 3.91,-0.58 4,-0.87c0.98,-2.09 2.71,-3.62 4.39,-11.06c-0.52,5.8 -1.09,5.74 -0.83,6.06c1.79,-0.6 1.25,0.44 0.85,0.69c-0.39,0.24 -2.27,4.97 -3.59,7.57l-3.12,2.1l0,0l-0.01,0l0.01,0.02l0,-0.02l-0.01,-0.02l0,0.01z" fill="#415176" id="svg_10"/>
   <path d="m100.86,65.53c0.62,0.44 1.33,0.89 1.43,1.4c0.2,1.12 0.05,2.28 0.05,3.86c-0.67,-0.16 -1.72,-0.1 -2.08,-0.58c-1.07,-1.31 -0.7,-3.76 0.62,-4.69l-0.01,0l0,0.02l-0.01,0l0,-0.01z" fill="#8B849B" id="svg_11"/>
   <path d="m101.57,74.5c2.06,-0.58 1.6,1.07 1.81,1.94c0.18,0.78 -0.05,1.61 -0.13,2.52c-2.57,-0.85 -3.21,-2.76 -1.68,-4.46l-0.01,0z" fill="#888198" id="svg_12"/>
   <path d="m66.91,60.92c-0.23,0.54 -0.5,0.94 -0.83,1.3c-1.57,-0.26 -2.04,-1.4 -1.88,-2.67c0.09,-0.63 0.85,-1.15 1.29,-1.75c0.44,0.56 0.98,1.09 1.3,1.75c0.18,0.3 0.05,0.81 0.09,1.38l0.01,0.02l0.01,-0.02l0.01,0l0,-0.01z" fill="#8A839A" id="svg_13"/>
   <path d="m103.08,62.5c-0.7,0.41 -1.42,0.64 -2.14,0.89c-0.05,-0.95 -0.31,-1.94 -0.14,-2.85c0.09,-0.44 0.9,-0.79 1.34,-1.15c0.35,0.71 0.67,1.41 0.98,2.13c0.09,0.24 -0.04,0.54 -0.05,0.99l0.01,-0.02l-0.01,0l0,0.02l0.01,0z" fill="#887F9B" id="svg_14"/>
   <path d="m99.69,84.54c0.18,-1.66 0.86,-2.52 2.59,-2.4c0.39,1.96 0.05,3.49 -2.12,4.57c-0.2,-0.79 -0.36,-1.38 -0.5,-2.13l0.01,-0.02l0.01,-0.02l0,-0.02l0.01,0.01l0,0.01z" fill="#888199" id="svg_15"/>
   <path d="m106.5,53.16c-0.22,0.73 -0.44,1.48 -0.71,2.31c-0.22,0.43 -0.31,0.85 -0.58,0.99c-0.46,0.26 -1.2,0.64 -1.52,0.46c-0.39,-0.18 -0.71,-1.21 -0.58,-1.5c0.62,-0.94 1.43,-1.66 2.47,-2.47c0.5,0.06 0.67,0.12 0.9,0.16l0.01,0l0,0.03l0,0.02l0,0.02l0.01,0l0,-0.02z" fill="#857C96" id="svg_16"/>
   <path d="m88.25,82.6c-0.35,0.71 -0.7,1.3 -1.33,2.22c-1.01,-1.38 -1.75,-2.45 -2.57,-3.55c2.23,-1.78 2.86,0.19 3.88,1.34l0,0.02l0,-0.02l0.01,0l0.01,0l0,-0.01z" fill="#89829A" id="svg_17"/>
   <path d="m90.44,85.61c1.28,0.58 2.8,0.82 1.81,3.25c-1.34,-0.63 -2.71,-1.23 -4.05,-1.84c0.01,-0.28 0.04,-0.56 0.05,-0.85c0.67,-0.19 1.38,-0.43 2.19,-0.58l-0.01,0l0,0.02l0,0.02l0.01,-0.01l0,-0.01z" fill="#867D96" id="svg_18"/>
   <path d="m70.57,51.5c0.5,-0.1 0.86,-0.3 1.16,-0.18c0.66,0.26 1.28,0.64 1.92,0.97c-0.62,0.46 -1.11,1.09 -1.81,1.4c-0.52,0.24 -1.18,0.03 -2.27,0.03c0.35,-0.87 0.62,-1.53 1.01,-2.24l0,0.02l-0.01,0z" fill="#827A96" id="svg_19"/>
   <path d="m82.77,66.38c-0.67,0.43 -1.4,0.71 -2.08,0.99c-0.28,-0.81 -0.58,-1.61 -0.85,-2.4c0.58,-0.16 1.29,-0.63 1.64,-0.43c0.59,0.34 0.9,1.12 1.3,1.86l0,-0.02l-0.01,0l0,0.01z" fill="#88809A" id="svg_20"/>
   <path d="m83.68,70.42c0.58,0.97 1.52,1.92 0.04,2.57c-0.43,0.16 -1.28,-0.37 -1.75,-0.79c-0.36,-0.3 -0.43,-0.95 -0.79,-1.91c0.98,0 1.72,0 2.53,0.12l0,-0.02l-0.01,0l0,0.02l-0.01,0.02l-0.01,-0.01z" fill="#8C859B" id="svg_21"/>
   <path d="m78,59.27c2.12,-1.36 2.4,0.39 3.12,1.51c-2.14,1.48 -2.76,1.15 -3.12,-1.51z" fill="#8A849A" id="svg_22"/>
   <path d="m96.8,86.97c0.63,0.53 1.11,1.05 1.57,1.6c-1.11,0.41 -2.22,0.81 -3.33,1.21c-0.18,-0.3 -0.36,-0.6 -0.54,-0.94c0.7,-0.63 1.42,-1.23 2.3,-1.88l0,0.02z" fill="#878197" id="svg_23"/>
   <path d="m85.06,75.65c0.27,0.71 0.62,1.31 0.52,1.88c-0.04,0.28 -1.09,0.73 -1.33,0.56c-0.65,-0.43 -1.11,-1.15 -1.65,-1.78c0.04,-0.19 0.11,-0.43 0.14,-0.64c0.71,-0.03 1.47,-0.08 2.31,-0.02z" fill="#8B879B" id="svg_24"/>
   <path d="m77.72,54.21c-0.18,0.71 -0.35,1.7 -0.71,1.84c-0.63,0.16 -1.4,-0.26 -2.12,-0.44c0.28,-2.2 1.25,-2.45 2.85,-1.38l0,-0.02l-0.01,0l-0.01,0l0,0.01z" fill="#8A859B" id="svg_25"/>
   <path d="m68.74,54.64c-0.5,0.51 -0.93,0.87 -1.34,1.21c-0.39,-0.56 -0.98,-1.07 -1.09,-1.68c-0.05,-0.37 0.62,-0.89 0.94,-1.34c0.52,0.54 1.06,1.09 1.51,1.79l-0.01,0.02l-0.01,0l0.01,0l-0.01,0l-0.01,0z" fill="#908BA0" id="svg_26"/>
   <path d="m96.72,22.68c0.18,1.05 0.22,2.2 0.2,3.49c-0.14,-1.03 -0.23,-2.22 -0.2,-3.49z" fill="none" id="svg_27"/>
   <path d="m115.84,23.82c0.01,0.39 -0.09,0.73 -0.18,1.07c-0.11,0 -0.22,0 -0.35,-0.02c-0.05,-0.41 -0.13,-0.82 -0.18,-1.4c0.2,-0.02 0.39,0.12 0.66,0.33l0.01,0.02l0.01,0l0.01,0l0.02,0z" fill="none" id="svg_28"/>
   <path d="m106.5,53.02c-0.2,0.06 -0.43,0 -0.75,-0.12c-0.01,-0.19 0.11,-0.37 0.35,-0.54c0.2,0.15 0.31,0.34 0.43,0.67l-0.01,0l-0.01,-0.02l-0.01,0.01z" fill="none" id="svg_29"/>
   <path d="m119.32,29.13c4.54,-1.09 7.3,0.56 8.37,4.88c0.93,3.86 -1.3,8.04 -4.85,8.99c-1.94,0.53 -5.07,-0.81 -6.31,-2.76c-1.73,-2.79 -1.79,-9.29 2.78,-11.11l0.01,0z" fill="none" id="svg_31"/>
   <path d="m127.01,56.09c1.11,-1.15 2.14,-2.2 3.17,-3.25c0.14,0.15 0.31,0.3 0.46,0.44c-0.77,5.84 -3.23,11.04 -6.23,16.05c-0.79,-4.7 0.28,-9.01 2.58,-13.25l0.01,0.02l0.01,0l0,-0.01z" fill="none" id="svg_32"/>
   <path d="m147.11,67.71c-5.55,-3.17 -10.95,-6.1 -17.42,-9.12c-1.49,-0.06 -1.92,-0.02 -2.36,0.02c0.05,0.89 0.14,1.76 0.65,3.07c0.18,1.4 -0.01,2.37 -0.27,3.34c0.35,0.85 0.63,1.66 1.16,2.93c0.01,0.54 -0.13,0.67 -0.31,0.79c0.52,1.43 1.06,2.89 2.04,4.75c0.39,0.81 0.27,1.15 0.13,1.53c0.52,0.63 1.06,1.27 2.06,2.24c0.93,0.56 0.86,0.78 0.28,0.94c2.38,1.78 4.77,3.54 7.15,5.29c1.28,0 2.53,0.02 3.76,0.02c2.53,-1.61 5.03,-3.25 7.46,-5.38c0.31,-1.21 0.66,-1.91 1.07,-2.61c-0.27,-0.44 -0.5,-0.91 -0.93,-1.78c-0.05,-0.71 0.09,-1 0.22,-1.3c-0.5,-0.43 -0.98,-0.85 -1.96,-1.61c-0.93,-0.54 -0.86,-0.73 -0.31,-0.94c-0.77,-0.64 -1.52,-1.31 -2.49,-2.22l0.05,0l0.01,0.02l-0.01,0l0,0.02l0.01,0.03l0.01,-0.02l0,-0.01z" fill="none" id="svg_33"/>
   <path d="m134.31,55.74c0.44,-1.34 0.83,-2.37 1.24,-3.42c0.35,0.1 0.67,0.18 1.06,0.28c-0.79,4.07 -1.64,8.19 -2.44,12.28c-0.5,-0.03 -0.98,-0.1 -1.47,-0.15c0.54,-2.91 1.07,-5.82 1.64,-9.03l0,0l0,0.02l0.01,0l-0.01,0l-0.01,0.02l-0.01,0l-0.01,0z" fill="#415176" id="svg_34"/>
   <path d="m103.21,8.52c-1.25,0.99 -2.57,1.34 -3.64,0.28c-0.65,-0.63 -1.28,-1.84 -1.11,-2.63c0.18,-0.89 1.09,-2 1.94,-2.27c0.83,-0.26 2.19,0.15 2.86,0.79c1.15,1.03 1.02,2.47 -0.04,3.85l-0.01,0l-0.01,0l0.01,-0.02l0,-0.02l-0.01,0.01z" fill="#F6F0F0" id="svg_43"/>
   <path d="m150.23,53.54c-0.39,1.25 -0.7,2.38 -1.02,3.55c-0.05,1.15 -0.14,2.35 -0.22,3.51c1.07,-2.02 2.12,-4.06 3.2,-6.1c0.13,-1.64 0.23,-3.3 0.36,-4.93c-0.71,1.31 -1.47,2.58 -2.3,3.96l0,-0.02l0,0.02l-0.01,0l0,0.01z" fill="#415176" id="svg_45"/>
  </g>
 </g>
</svg>